# xmcd CD database file
#
# Track frame offsets:
#	150
#	24660
#	49797
#	65987
#	91192
#	112337
#	140545
#	169577
#	198767
#	218322
#	245185
#
# Disc length: 3611 seconds
#
# Revision: 0
# Processed by: cddbd v1.5.1PL2 Copyright (c) Steve Scherf et al.
# Submitted via: CDex 1.51
#
DISCID=9f0e190b
DTITLE=Earl Hines - Blues in thirds
DYEAR=1965
DGENRE=Jazz
TTITLE0=Blues in thirds
TTITLE1=Velvet moon
TTITLE2=Stan dance
TTITLE3=Sweet Lorraine
TTITLE4=Black Lion Blues
TTITLE5=Tea for two
TTITLE6=When I dream of you
TTITLE7=Blues after midnight
TTITLE8=Shiny stockings
TTITLE9=Sweet Lorraine (take 2)
TTITLE10=Velvet moon (take 2)
EXTD=YEAR: 1965
EXTT0=
EXTT1=
EXTT2=
EXTT3=
EXTT4=
EXTT5=
EXTT6=
EXTT7=
EXTT8=
EXTT9=
EXTT10=
PLAYORDER=
